<?xml version="1.0" encoding="UTF-8"?>
<!DOCTYPE score-partwise PUBLIC "-//Recordare//DTD MusicXML 3.1 Partwise//EN" "http://www.musicxml.org/dtds/partwise.dtd">
<score-partwise version="3.1">
  <work>
    <work-title>Doeb Doe Bi Doe Ba</work-title>
    </work>
  <identification>
    <encoding>
      <software>MuseScore 3.0.1</software>
      <encoding-date>2019-02-05</encoding-date>
      <supports element="accidental" type="yes"/>
      <supports element="beam" type="yes"/>
      <supports element="print" attribute="new-page" type="yes" value="yes"/>
      <supports element="print" attribute="new-system" type="yes" value="yes"/>
      <supports element="stem" type="yes"/>
      </encoding>
    </identification>
  <defaults>
    <scaling>
      <millimeters>7.05556</millimeters>
      <tenths>40</tenths>
      </scaling>
    <word-font font-family="FreeSerif" font-size="10"/>
    <lyric-font font-family="FreeSerif" font-size="11"/>
    </defaults>
  <credit page="1">
    <credit-words default-x="612" default-y="1527.31" justify="center" valign="top" font-size="24">Doeb Doe Bi Doe Ba</credit-words>
    </credit>
  <part-list>
    <score-part id="P1">
      <part-name>Piano</part-name>
      <part-abbreviation>Pno.</part-abbreviation>
      <score-instrument id="P1-I1">
        <instrument-name>Piano</instrument-name>
        </score-instrument>
      <midi-device id="P1-I1" port="1"></midi-device>
      <midi-instrument id="P1-I1">
        <midi-channel>1</midi-channel>
        <midi-program>1</midi-program>
        <volume>78.7402</volume>
        <pan>0</pan>
        </midi-instrument>
      </score-part>
    </part-list>
  <part id="P1">
    <measure number="1" width="361.81">
      <print>
        <system-layout>
          <system-margins>
            <left-margin>0.00</left-margin>
            <right-margin>0.00</right-margin>
            </system-margins>
          <top-system-distance>170.00</top-system-distance>
          </system-layout>
        </print>
      <attributes>
        <divisions>2</divisions>
        <key>
          <fifths>0</fifths>
          </key>
        <time>
          <beats>4</beats>
          <beat-type>4</beat-type>
          </time>
        <clef>
          <sign>G</sign>
          <line>2</line>
          </clef>
        </attributes>
      <note default-x="79.27" default-y="-40.00">
        <pitch>
          <step>E</step>
          <octave>4</octave>
          </pitch>
        <duration>2</duration>
        <voice>1</voice>
        <type>quarter</type>
        <stem>up</stem>
        <lyric number="1" default-x="6.58" default-y="-70.00" relative-y="-13.60">
          <syllabic>begin</syllabic>
          <text font-weight="bold" font-size="13">Doeb</text>
          </lyric>
        </note>
      <note default-x="139.57" default-y="-40.00">
        <pitch>
          <step>E</step>
          <octave>4</octave>
          </pitch>
        <duration>1</duration>
        <voice>1</voice>
        <type>eighth</type>
        <stem>up</stem>
        <beam number="1">begin</beam>
        <lyric number="1" default-x="6.58" default-y="-70.00" relative-y="-13.60">
          <syllabic>middle</syllabic>
          <text font-weight="bold" font-size="13">doe</text>
          </lyric>
        </note>
      <note default-x="181.67" default-y="-40.00">
        <pitch>
          <step>E</step>
          <octave>4</octave>
          </pitch>
        <duration>1</duration>
        <voice>1</voice>
        <type>eighth</type>
        <stem>up</stem>
        <beam number="1">end</beam>
        <lyric number="1" default-x="6.58" default-y="-70.00" relative-y="-13.60">
          <syllabic>middle</syllabic>
          <text font-weight="bold" font-size="13">bi</text>
          </lyric>
        </note>
      <note default-x="223.77" default-y="-30.00">
        <pitch>
          <step>G</step>
          <octave>4</octave>
          </pitch>
        <duration>1</duration>
        <voice>1</voice>
        <type>eighth</type>
        <stem>up</stem>
        <lyric number="1" default-x="6.58" default-y="-70.00" relative-y="-13.60">
          <syllabic>middle</syllabic>
          <text font-weight="bold" font-size="13">doe</text>
          </lyric>
        </note>
      <note default-x="268.67" default-y="-40.00">
        <pitch>
          <step>E</step>
          <octave>4</octave>
          </pitch>
        <duration>2</duration>
        <voice>1</voice>
        <type>quarter</type>
        <stem>up</stem>
        <lyric number="1" default-x="6.58" default-y="-70.00" relative-y="-13.60">
          <syllabic>end</syllabic>
          <text font-weight="bold" font-size="13">ba</text>
          </lyric>
        </note>
      <note>
        <rest/>
        <duration>1</duration>
        <voice>1</voice>
        <type>eighth</type>
        </note>
      </measure>
    <measure number="2" width="202.60">
      <note default-x="34.62" default-y="-40.00">
        <pitch>
          <step>E</step>
          <octave>4</octave>
          </pitch>
        <duration>2</duration>
        <voice>1</voice>
        <type>quarter</type>
        <stem>up</stem>
        <lyric number="1" default-x="6.58" default-y="-70.00" relative-y="-13.60">
          <syllabic>begin</syllabic>
          <text font-weight="bold" font-size="13">doeb</text>
          </lyric>
        </note>
      <note default-x="83.92" default-y="-40.00">
        <pitch>
          <step>E</step>
          <octave>4</octave>
          </pitch>
        <duration>1</duration>
        <voice>1</voice>
        <type>eighth</type>
        <stem>up</stem>
        <lyric number="1" default-x="6.58" default-y="-70.00" relative-y="-13.60">
          <syllabic>middle</syllabic>
          <text font-weight="bold" font-size="13">di</text>
          </lyric>
        </note>
      <note default-x="127.82" default-y="-45.00">
        <pitch>
          <step>D</step>
          <octave>4</octave>
          </pitch>
        <duration>3</duration>
        <voice>1</voice>
        <type>quarter</type>
        <dot/>
        <stem>up</stem>
        <lyric number="1" default-x="6.58" default-y="-70.00" relative-y="-13.60">
          <syllabic>end</syllabic>
          <text font-weight="bold" font-size="13">dau</text>
          </lyric>
        </note>
      <note>
        <rest/>
        <duration>2</duration>
        <voice>1</voice>
        <type>quarter</type>
        </note>
      </measure>
    <measure number="3" width="325.70">
      <note default-x="28.82" default-y="-40.00">
        <pitch>
          <step>E</step>
          <octave>4</octave>
          </pitch>
        <duration>2</duration>
        <voice>1</voice>
        <type>quarter</type>
        <stem>up</stem>
        <lyric number="1" default-x="6.58" default-y="-70.00" relative-y="-13.60">
          <syllabic>begin</syllabic>
          <text font-weight="bold" font-size="13">dab</text>
          </lyric>
        </note>
      <note default-x="90.98" default-y="-40.00">
        <pitch>
          <step>E</step>
          <octave>4</octave>
          </pitch>
        <duration>1</duration>
        <voice>1</voice>
        <type>eighth</type>
        <stem>up</stem>
        <beam number="1">begin</beam>
        <lyric number="1" default-y="-70.00" relative-y="-13.60">
          <syllabic>middle</syllabic>
          <text font-weight="bold" font-size="13">dab</text>
          </lyric>
        </note>
      <note default-x="129.83" default-y="-40.00">
        <pitch>
          <step>E</step>
          <octave>4</octave>
          </pitch>
        <duration>1</duration>
        <voice>1</voice>
        <type>eighth</type>
        <stem>up</stem>
        <beam number="1">end</beam>
        </note>
      <note default-x="168.69" default-y="-40.00">
        <pitch>
          <step>E</step>
          <octave>4</octave>
          </pitch>
        <duration>1</duration>
        <voice>1</voice>
        <type>eighth</type>
        <stem>up</stem>
        <beam number="1">begin</beam>
        <lyric number="1" default-x="6.58" default-y="-70.00" relative-y="-13.60">
          <syllabic>middle</syllabic>
          <text font-weight="bold" font-size="13">be</text>
          </lyric>
        </note>
      <note default-x="207.54" default-y="-40.00">
        <pitch>
          <step>E</step>
          <octave>4</octave>
          </pitch>
        <duration>1</duration>
        <voice>1</voice>
        <type>eighth</type>
        <stem>up</stem>
        <beam number="1">continue</beam>
        <lyric number="1" default-x="6.58" default-y="-70.00" relative-y="-13.60">
          <syllabic>middle</syllabic>
          <text font-weight="bold" font-size="13">di</text>
          </lyric>
        </note>
      <note default-x="246.39" default-y="-40.00">
        <pitch>
          <step>E</step>
          <octave>4</octave>
          </pitch>
        <duration>1</duration>
        <voice>1</voice>
        <type>eighth</type>
        <stem>up</stem>
        <beam number="1">continue</beam>
        <lyric number="1" default-x="6.58" default-y="-70.00" relative-y="-13.60">
          <syllabic>middle</syllabic>
          <text font-weight="bold" font-size="13">be</text>
          </lyric>
        </note>
      <note default-x="285.24" default-y="-40.00">
        <pitch>
          <step>E</step>
          <octave>4</octave>
          </pitch>
        <duration>1</duration>
        <voice>1</voice>
        <type>eighth</type>
        <stem>up</stem>
        <beam number="1">end</beam>
        <lyric number="1" default-x="6.58" default-y="-70.00" relative-y="-13.60">
          <syllabic>end</syllabic>
          <text font-weight="bold" font-size="13">da</text>
          </lyric>
        </note>
      </measure>
    <measure number="4" width="220.51">
      <note default-x="34.62" default-y="-40.00">
        <pitch>
          <step>E</step>
          <octave>4</octave>
          </pitch>
        <duration>2</duration>
        <voice>1</voice>
        <type>quarter</type>
        <stem>up</stem>
        <lyric number="1" default-x="6.58" default-y="-70.00" relative-y="-13.60">
          <syllabic>begin</syllabic>
          <text font-weight="bold" font-size="13">doeb</text>
          </lyric>
        </note>
      <note default-x="83.92" default-y="-50.00">
        <pitch>
          <step>C</step>
          <octave>4</octave>
          </pitch>
        <duration>1</duration>
        <voice>1</voice>
        <type>eighth</type>
        <stem>up</stem>
        <lyric number="1" default-x="6.58" default-y="-70.00" relative-y="-13.60">
          <syllabic>middle</syllabic>
          <text font-weight="bold" font-size="13">di</text>
          </lyric>
        </note>
      <note default-x="127.82" default-y="-50.00">
        <pitch>
          <step>C</step>
          <octave>4</octave>
          </pitch>
        <duration>2</duration>
        <voice>1</voice>
        <type>quarter</type>
        <stem>up</stem>
        <lyric number="1" default-x="6.58" default-y="-70.00" relative-y="-13.60">
          <syllabic>end</syllabic>
          <text font-weight="bold" font-size="13">dau</text>
          </lyric>
        </note>
      <note>
        <rest/>
        <duration>1</duration>
        <voice>1</voice>
        <type>eighth</type>
        </note>
      <note>
        <rest/>
        <duration>2</duration>
        <voice>1</voice>
        <type>quarter</type>
        </note>
      </measure>
    <measure number="5" width="486.09">
      <print new-system="yes">
        <system-layout>
          <system-margins>
            <left-margin>0.00</left-margin>
            <right-margin>-0.00</right-margin>
            </system-margins>
          <system-distance>150.00</system-distance>
          </system-layout>
        </print>
      <note default-x="58.17" default-y="-40.00">
        <pitch>
          <step>E</step>
          <octave>4</octave>
          </pitch>
        <duration>1</duration>
        <voice>1</voice>
        <type>eighth</type>
        <stem>up</stem>
        <beam number="1">begin</beam>
        <lyric number="1" default-x="6.58" default-y="-70.00" relative-y="-3.20">
          <syllabic>begin</syllabic>
          <text font-weight="bold" font-size="13">acht</text>
          </lyric>
        </note>
      <note default-x="111.46" default-y="-40.00">
        <pitch>
          <step>E</step>
          <octave>4</octave>
          </pitch>
        <duration>1</duration>
        <voice>1</voice>
        <type>eighth</type>
        <stem>up</stem>
        <beam number="1">continue</beam>
        <lyric number="1" default-x="6.58" default-y="-70.00" relative-y="-3.20">
          <syllabic>end</syllabic>
          <text font-weight="bold" font-size="13">ste</text>
          </lyric>
        </note>
      <note default-x="164.75" default-y="-40.00">
        <pitch>
          <step>E</step>
          <octave>4</octave>
          </pitch>
        <duration>1</duration>
        <voice>1</voice>
        <type>eighth</type>
        <stem>up</stem>
        <beam number="1">continue</beam>
        <lyric number="1" default-x="6.58" default-y="-70.00" relative-y="-3.20">
          <syllabic>begin</syllabic>
          <text font-weight="bold" font-size="13">no</text>
          </lyric>
        </note>
      <note default-x="218.04" default-y="-40.00">
        <pitch>
          <step>E</step>
          <octave>4</octave>
          </pitch>
        <duration>1</duration>
        <voice>1</voice>
        <type>eighth</type>
        <stem>up</stem>
        <beam number="1">continue</beam>
        <lyric number="1" default-x="6.58" default-y="-70.00" relative-y="-3.20">
          <syllabic>end</syllabic>
          <text font-weight="bold" font-size="13">ten</text>
          </lyric>
        </note>
      <note default-x="271.33" default-y="-40.00">
        <pitch>
          <step>E</step>
          <octave>4</octave>
          </pitch>
        <duration>1</duration>
        <voice>1</voice>
        <type>eighth</type>
        <stem>up</stem>
        <beam number="1">continue</beam>
        <lyric number="1" default-x="6.58" default-y="-70.00" relative-y="-3.20">
          <syllabic>begin</syllabic>
          <text font-weight="bold" font-size="13">dol</text>
          </lyric>
        </note>
      <note default-x="324.62" default-y="-40.00">
        <pitch>
          <step>E</step>
          <octave>4</octave>
          </pitch>
        <duration>1</duration>
        <voice>1</voice>
        <type>eighth</type>
        <stem>up</stem>
        <beam number="1">continue</beam>
        <lyric number="1" default-x="6.58" default-y="-70.00" relative-y="-3.20">
          <syllabic>end</syllabic>
          <text font-weight="bold" font-size="13">len</text>
          </lyric>
        </note>
      <note default-x="377.91" default-y="-40.00">
        <pitch>
          <step>E</step>
          <octave>4</octave>
          </pitch>
        <duration>1</duration>
        <voice>1</voice>
        <type>eighth</type>
        <stem>up</stem>
        <beam number="1">continue</beam>
        <lyric number="1" default-x="6.58" default-y="-70.00" relative-y="-3.20">
          <syllabic>single</syllabic>
          <text font-weight="bold" font-size="13">en</text>
          </lyric>
        </note>
      <note default-x="431.20" default-y="-40.00">
        <pitch>
          <step>E</step>
          <octave>4</octave>
          </pitch>
        <duration>1</duration>
        <voice>1</voice>
        <type>eighth</type>
        <stem>up</stem>
        <beam number="1">end</beam>
        <lyric number="1" default-x="6.58" default-y="-70.00" relative-y="-3.20">
          <syllabic>single</syllabic>
          <text font-weight="bold" font-size="13">ze</text>
          </lyric>
        </note>
      </measure>
    <measure number="6" width="405.53">
      <note default-x="22.62" default-y="-30.00">
        <pitch>
          <step>G</step>
          <octave>4</octave>
          </pitch>
        <duration>1</duration>
        <voice>1</voice>
        <type>eighth</type>
        <stem>up</stem>
        <beam number="1">begin</beam>
        <lyric number="1" default-x="6.58" default-y="-70.00" relative-y="-3.20">
          <syllabic>begin</syllabic>
          <text font-weight="bold" font-size="13">tol</text>
          </lyric>
        </note>
      <note default-x="70.28" default-y="-30.00">
        <pitch>
          <step>G</step>
          <octave>4</octave>
          </pitch>
        <duration>1</duration>
        <voice>1</voice>
        <type>eighth</type>
        <stem>up</stem>
        <beam number="1">continue</beam>
        <lyric number="1" default-x="6.58" default-y="-70.00" relative-y="-3.20">
          <syllabic>end</syllabic>
          <text font-weight="bold" font-size="13">len</text>
          </lyric>
        </note>
      <note default-x="117.95" default-y="-30.00">
        <pitch>
          <step>G</step>
          <octave>4</octave>
          </pitch>
        <duration>1</duration>
        <voice>1</voice>
        <type>eighth</type>
        <stem>up</stem>
        <beam number="1">continue</beam>
        <lyric number="1" default-x="6.58" default-y="-70.00" relative-y="-3.20">
          <syllabic>begin</syllabic>
          <text font-weight="bold" font-size="13">rol</text>
          </lyric>
        </note>
      <note default-x="165.61" default-y="-30.00">
        <pitch>
          <step>G</step>
          <octave>4</octave>
          </pitch>
        <duration>1</duration>
        <voice>1</voice>
        <type>eighth</type>
        <stem>up</stem>
        <beam number="1">end</beam>
        <lyric number="1" default-x="6.58" default-y="-70.00" relative-y="-3.20">
          <syllabic>end</syllabic>
          <text font-weight="bold" font-size="13">le</text>
          </lyric>
        </note>
      <note default-x="213.27" default-y="-30.00">
        <pitch>
          <step>G</step>
          <octave>4</octave>
          </pitch>
        <duration>1</duration>
        <voice>1</voice>
        <type>eighth</type>
        <stem>up</stem>
        <beam number="1">begin</beam>
        <lyric number="1" default-x="6.58" default-y="-70.00" relative-y="-3.20">
          <syllabic>begin</syllabic>
          <text font-weight="bold" font-size="13">bol</text>
          </lyric>
        </note>
      <note default-x="260.94" default-y="-30.00">
        <pitch>
          <step>G</step>
          <octave>4</octave>
          </pitch>
        <duration>1</duration>
        <voice>1</voice>
        <type>eighth</type>
        <stem>up</stem>
        <beam number="1">continue</beam>
        <lyric number="1" default-x="6.58" default-y="-70.00" relative-y="-3.20">
          <syllabic>end</syllabic>
          <text font-weight="bold" font-size="13">len</text>
          </lyric>
        </note>
      <note default-x="308.60" default-y="-30.00">
        <pitch>
          <step>G</step>
          <octave>4</octave>
          </pitch>
        <duration>1</duration>
        <voice>1</voice>
        <type>eighth</type>
        <stem>up</stem>
        <beam number="1">continue</beam>
        <lyric number="1" default-y="-70.00" relative-y="-3.20">
          <syllabic>begin</syllabic>
          <text font-weight="bold" font-size="13">heen</text>
          </lyric>
        </note>
      <note default-x="356.27" default-y="-30.00">
        <pitch>
          <step>G</step>
          <octave>4</octave>
          </pitch>
        <duration>1</duration>
        <voice>1</voice>
        <type>eighth</type>
        <stem>up</stem>
        <beam number="1">end</beam>
        </note>
      </measure>
    <measure number="7" width="102.70">
      <note default-x="20.66" default-y="-30.00">
        <pitch>
          <step>G</step>
          <octave>4</octave>
          </pitch>
        <duration>6</duration>
        <voice>1</voice>
        <type>half</type>
        <dot/>
        <stem>up</stem>
        <lyric number="1" default-x="6.22" default-y="-70.00" relative-y="-3.20">
          <syllabic>end</syllabic>
          <text font-weight="bold" font-size="13">en</text>
          </lyric>
        </note>
      <note>
        <rest/>
        <duration>2</duration>
        <voice>1</voice>
        <type>quarter</type>
        </note>
      </measure>
    <measure number="8" width="116.29">
      <note default-x="31.50" default-y="-30.00">
        <pitch>
          <step>G</step>
          <octave>4</octave>
          </pitch>
        <duration>8</duration>
        <voice>1</voice>
        <type>whole</type>
        <lyric number="1" default-x="3.26" default-y="-70.00" relative-y="-3.20">
          <syllabic>single</syllabic>
          <text font-weight="bold" font-size="13">weer</text>
          </lyric>
        </note>
      </measure>
    <measure number="9" width="288.76">
      <print new-system="yes">
        <system-layout>
          <system-margins>
            <left-margin>0.00</left-margin>
            <right-margin>-0.00</right-margin>
            </system-margins>
          <system-distance>150.00</system-distance>
          </system-layout>
        </print>
      <note default-x="58.17" default-y="-15.00">
        <pitch>
          <step>C</step>
          <octave>5</octave>
          </pitch>
        <duration>2</duration>
        <voice>1</voice>
        <type>quarter</type>
        <stem>down</stem>
        <lyric number="1" default-x="6.58" default-y="-70.00" relative-y="-9.50">
          <syllabic>single</syllabic>
          <text font-weight="bold" font-size="13">en</text>
          </lyric>
        </note>
      <note default-x="115.42" default-y="-15.00">
        <pitch>
          <step>C</step>
          <octave>5</octave>
          </pitch>
        <duration>2</duration>
        <voice>1</voice>
        <type>quarter</type>
        <stem>down</stem>
        <lyric number="1" default-x="6.58" default-y="-70.00" relative-y="-9.50">
          <syllabic>single</syllabic>
          <text font-weight="bold" font-size="13">met</text>
          </lyric>
        </note>
      <note default-x="172.67" default-y="-15.00">
        <pitch>
          <step>C</step>
          <octave>5</octave>
          </pitch>
        <duration>2</duration>
        <voice>1</voice>
        <type>quarter</type>
        <stem>down</stem>
        <lyric number="1" default-x="6.58" default-y="-70.00" relative-y="-9.50">
          <syllabic>begin</syllabic>
          <text font-weight="bold" font-size="13">klei</text>
          </lyric>
        </note>
      <note default-x="229.92" default-y="-15.00">
        <pitch>
          <step>C</step>
          <octave>5</octave>
          </pitch>
        <duration>2</duration>
        <voice>1</voice>
        <type>quarter</type>
        <stem>down</stem>
        <lyric number="1" default-x="6.58" default-y="-70.00" relative-y="-9.50">
          <syllabic>end</syllabic>
          <text font-weight="bold" font-size="13">ne</text>
          </lyric>
        </note>
      </measure>
    <measure number="10" width="294.44">
      <note default-x="37.22" default-y="-20.00">
        <pitch>
          <step>B</step>
          <octave>4</octave>
          </pitch>
        <duration>2</duration>
        <voice>1</voice>
        <type>quarter</type>
        <stem>down</stem>
        <lyric number="1" default-x="6.58" default-y="-70.00" relative-y="-9.50">
          <syllabic>begin</syllabic>
          <text font-weight="bold" font-size="13">schre</text>
          </lyric>
        </note>
      <note default-x="101.12" default-y="-20.00">
        <pitch>
          <step>B</step>
          <octave>4</octave>
          </pitch>
        <duration>2</duration>
        <voice>1</voice>
        <type>quarter</type>
        <stem>down</stem>
        <lyric number="1" default-x="6.58" default-y="-70.00" relative-y="-9.50">
          <syllabic>end</syllabic>
          <text font-weight="bold" font-size="13">den</text>
          </lyric>
        </note>
      <note default-x="165.03" default-y="-20.00">
        <pitch>
          <step>B</step>
          <octave>4</octave>
          </pitch>
        <duration>2</duration>
        <voice>1</voice>
        <type>quarter</type>
        <stem>down</stem>
        <lyric number="1" default-x="6.58" default-y="-70.00" relative-y="-9.50">
          <syllabic>begin</syllabic>
          <text font-weight="bold" font-size="13">ko</text>
          </lyric>
        </note>
      <note default-x="228.94" default-y="-20.00">
        <pitch>
          <step>B</step>
          <octave>4</octave>
          </pitch>
        <duration>2</duration>
        <voice>1</voice>
        <type>quarter</type>
        <stem>down</stem>
        <lyric number="1" default-x="6.58" default-y="-70.00" relative-y="-9.50">
          <syllabic>end</syllabic>
          <text font-weight="bold" font-size="13">men</text>
          </lyric>
        </note>
      </measure>
    <measure number="11" width="290.68">
      <note default-x="36.82" default-y="-25.00">
        <pitch>
          <step>A</step>
          <octave>4</octave>
          </pitch>
        <duration>2</duration>
        <voice>1</voice>
        <type>quarter</type>
        <stem>up</stem>
        <lyric number="1" default-x="6.58" default-y="-70.00" relative-y="-9.50">
          <syllabic>begin</syllabic>
          <text font-weight="bold" font-size="13">kwar</text>
          </lyric>
        </note>
      <note default-x="99.88" default-y="-25.00">
        <pitch>
          <step>A</step>
          <octave>4</octave>
          </pitch>
        <duration>2</duration>
        <voice>1</voice>
        <type>quarter</type>
        <stem>up</stem>
        <lyric number="1" default-x="6.58" default-y="-70.00" relative-y="-9.50">
          <syllabic>end</syllabic>
          <text font-weight="bold" font-size="13">ten</text>
          </lyric>
        </note>
      <note default-x="162.95" default-y="-25.00">
        <pitch>
          <step>A</step>
          <octave>4</octave>
          </pitch>
        <duration>2</duration>
        <voice>1</voice>
        <type>quarter</type>
        <stem>up</stem>
        <lyric number="1" default-x="6.58" default-y="-70.00" relative-y="-9.50">
          <syllabic>single</syllabic>
          <text font-weight="bold" font-size="13">naar</text>
          </lyric>
        </note>
      <note default-x="226.02" default-y="-25.00">
        <pitch>
          <step>A</step>
          <octave>4</octave>
          </pitch>
        <duration>2</duration>
        <voice>1</voice>
        <type>quarter</type>
        <stem>up</stem>
        <lyric number="1" default-x="6.58" default-y="-70.00" relative-y="-9.50">
          <syllabic>begin</syllabic>
          <text font-weight="bold" font-size="13">be</text>
          </lyric>
        </note>
      </measure>
    <measure number="12" width="236.72">
      <note default-x="21.02" default-y="-35.00">
        <pitch>
          <step>F</step>
          <octave>4</octave>
          </pitch>
        <duration>2</duration>
        <voice>1</voice>
        <type>quarter</type>
        <stem>up</stem>
        <lyric number="1" default-x="6.58" default-y="-70.00" relative-y="-9.50">
          <syllabic>middle</syllabic>
          <text font-weight="bold" font-size="13">ne</text>
          </lyric>
        </note>
      <note default-x="74.54" default-y="-35.00">
        <pitch>
          <step>F</step>
          <octave>4</octave>
          </pitch>
        <duration>2</duration>
        <voice>1</voice>
        <type>quarter</type>
        <stem>up</stem>
        <lyric number="1" default-x="6.58" default-y="-70.00" relative-y="-9.50">
          <syllabic>end</syllabic>
          <text font-weight="bold" font-size="13">den</text>
          </lyric>
        </note>
      <note default-x="128.07" default-y="-35.00">
        <pitch>
          <step>F</step>
          <octave>4</octave>
          </pitch>
        <duration>2</duration>
        <voice>1</voice>
        <type>quarter</type>
        <stem>up</stem>
        <lyric number="1" default-x="6.58" default-y="-70.00" relative-y="-9.50">
          <syllabic>single</syllabic>
          <text font-weight="bold" font-size="13">en</text>
          </lyric>
        </note>
      <note default-x="181.60" default-y="-35.00">
        <pitch>
          <step>F</step>
          <octave>4</octave>
          </pitch>
        <duration>2</duration>
        <voice>1</voice>
        <type>quarter</type>
        <stem>up</stem>
        <lyric number="1" default-x="6.58" default-y="-70.00" relative-y="-9.50">
          <syllabic>single</syllabic>
          <text font-weight="bold" font-size="13">we</text>
          </lyric>
        </note>
      </measure>
    <measure number="13" width="493.89">
      <print new-system="yes">
        <system-layout>
          <system-margins>
            <left-margin>0.00</left-margin>
            <right-margin>-0.00</right-margin>
            </system-margins>
          <system-distance>150.00</system-distance>
          </system-layout>
        </print>
      <note default-x="71.39" default-y="-35.00">
        <pitch>
          <step>F</step>
          <alter>1</alter>
          <octave>4</octave>
          </pitch>
        <duration>2</duration>
        <voice>1</voice>
        <type>quarter</type>
        <accidental>sharp</accidental>
        <stem>up</stem>
        <lyric number="1" default-x="6.58" default-y="-70.00" relative-y="-7.60">
          <syllabic>begin</syllabic>
          <text font-weight="bold" font-size="13">schu</text>
          </lyric>
        </note>
      <note default-x="176.62" default-y="-35.00">
        <pitch>
          <step>F</step>
          <octave>4</octave>
          </pitch>
        <duration>2</duration>
        <voice>1</voice>
        <type>quarter</type>
        <accidental>natural</accidental>
        <stem>up</stem>
        <lyric number="1" default-x="6.58" default-y="-70.00" relative-y="-7.60">
          <syllabic>end</syllabic>
          <text font-weight="bold" font-size="13">wen</text>
          </lyric>
        </note>
      <note default-x="281.84" default-y="-35.00">
        <pitch>
          <step>F</step>
          <octave>4</octave>
          </pitch>
        <duration>2</duration>
        <voice>1</voice>
        <type>quarter</type>
        <stem>up</stem>
        <lyric number="1" default-x="6.58" default-y="-70.00" relative-y="-7.60">
          <syllabic>single</syllabic>
          <text font-weight="bold" font-size="13">zelfs</text>
          </lyric>
        </note>
      <note default-x="387.07" default-y="-35.00">
        <pitch>
          <step>F</step>
          <octave>4</octave>
          </pitch>
        <duration>2</duration>
        <voice>1</voice>
        <type>quarter</type>
        <stem>up</stem>
        <lyric number="1" default-x="6.58" default-y="-70.00" relative-y="-7.60">
          <syllabic>single</syllabic>
          <text font-weight="bold" font-size="13">geen</text>
          </lyric>
        </note>
      </measure>
    <measure number="14" width="378.08">
      <note default-x="25.42" default-y="-35.00">
        <pitch>
          <step>F</step>
          <octave>4</octave>
          </pitch>
        <duration>2</duration>
        <voice>1</voice>
        <type>quarter</type>
        <stem>up</stem>
        <lyric number="1" default-x="6.58" default-y="-70.00" relative-y="-7.60">
          <syllabic>begin</syllabic>
          <text font-weight="bold" font-size="13">hal</text>
          </lyric>
        </note>
      <note default-x="113.18" default-y="-35.00">
        <pitch>
          <step>F</step>
          <octave>4</octave>
          </pitch>
        <duration>2</duration>
        <voice>1</voice>
        <type>quarter</type>
        <stem>up</stem>
        <lyric number="1" default-x="6.58" default-y="-70.00" relative-y="-7.60">
          <syllabic>end</syllabic>
          <text font-weight="bold" font-size="13">ve</text>
          </lyric>
        </note>
      <note default-x="200.95" default-y="-35.00">
        <pitch>
          <step>F</step>
          <octave>4</octave>
          </pitch>
        <duration>2</duration>
        <voice>1</voice>
        <type>quarter</type>
        <stem>up</stem>
        <lyric number="1" default-x="6.58" default-y="-70.00" relative-y="-7.60">
          <syllabic>begin</syllabic>
          <text font-weight="bold" font-size="13">tre</text>
          </lyric>
        </note>
      <note default-x="288.71" default-y="-35.00">
        <pitch>
          <step>F</step>
          <octave>4</octave>
          </pitch>
        <duration>2</duration>
        <voice>1</voice>
        <type>quarter</type>
        <stem>up</stem>
        <lyric number="1" default-x="6.58" default-y="-70.00" relative-y="-7.60">
          <syllabic>end</syllabic>
          <text font-weight="bold" font-size="13">den</text>
          </lyric>
        </note>
      </measure>
    <measure number="15" width="238.64">
      <note default-x="36.46" default-y="-40.00">
        <pitch>
          <step>E</step>
          <octave>4</octave>
          </pitch>
        <duration>4</duration>
        <voice>1</voice>
        <type>half</type>
        <stem>up</stem>
        <lyric number="1" default-x="8.42" default-y="-70.00" relative-y="-7.60">
          <syllabic>single</syllabic>
          <text font-weight="bold" font-size="13">meer.</text>
          </lyric>
        </note>
      <note>
        <rest/>
        <duration>4</duration>
        <voice>1</voice>
        <type>half</type>
        </note>
      </measure>
    <measure number="16" width="190.11">
      <print new-system="yes">
        <system-layout>
          <system-margins>
            <left-margin>0.00</left-margin>
            <right-margin>0.00</right-margin>
            </system-margins>
          <system-distance>150.00</system-distance>
          </system-layout>
        </print>
      <note default-x="58.17" default-y="-30.00">
        <pitch>
          <step>G</step>
          <octave>4</octave>
          </pitch>
        <duration>4</duration>
        <voice>1</voice>
        <type>half</type>
        <stem>up</stem>
        <lyric number="1" default-x="6.22" default-y="-70.00" relative-y="-3.00">
          <syllabic>begin</syllabic>
          <text font-weight="bold" font-size="13">e</text>
          </lyric>
        </note>
      <note default-x="123.16" default-y="-30.00">
        <pitch>
          <step>G</step>
          <octave>4</octave>
          </pitch>
        <duration>4</duration>
        <voice>1</voice>
        <type>half</type>
        <stem>up</stem>
        <lyric number="1" default-x="6.22" default-y="-70.00" relative-y="-3.00">
          <syllabic>end</syllabic>
          <text font-weight="bold" font-size="13">ven</text>
          </lyric>
        </note>
      </measure>
    <measure number="17" width="164.83">
      <note default-x="18.26" default-y="-30.00">
        <pitch>
          <step>G</step>
          <alter>1</alter>
          <octave>4</octave>
          </pitch>
        <duration>4</duration>
        <voice>1</voice>
        <type>half</type>
        <accidental>sharp</accidental>
        <stem>up</stem>
        <lyric number="1" default-x="6.22" default-y="-70.00" relative-y="-3.00">
          <syllabic>begin</syllabic>
          <text font-weight="bold" font-size="13">stij</text>
          </lyric>
        </note>
      <note default-x="90.56" default-y="-30.00">
        <pitch>
          <step>G</step>
          <octave>4</octave>
          </pitch>
        <duration>4</duration>
        <voice>1</voice>
        <type>half</type>
        <accidental>natural</accidental>
        <stem>up</stem>
        <lyric number="1" default-x="6.22" default-y="-70.00" relative-y="-3.00">
          <syllabic>end</syllabic>
          <text font-weight="bold" font-size="13">gen</text>
          </lyric>
        </note>
      </measure>
    <measure number="18" width="153.63">
      <note default-x="25.06" default-y="-25.00">
        <pitch>
          <step>A</step>
          <octave>4</octave>
          </pitch>
        <duration>4</duration>
        <voice>1</voice>
        <type>half</type>
        <stem>up</stem>
        <lyric number="1" default-x="6.22" default-y="-70.00" relative-y="-3.00">
          <syllabic>begin</syllabic>
          <text font-weight="bold" font-size="13">hal</text>
          </lyric>
        </note>
      <note default-x="88.36" default-y="-25.00">
        <pitch>
          <step>A</step>
          <octave>4</octave>
          </pitch>
        <duration>4</duration>
        <voice>1</voice>
        <type>half</type>
        <stem>up</stem>
        <lyric number="1" default-x="6.22" default-y="-70.00" relative-y="-3.00">
          <syllabic>end</syllabic>
          <text font-weight="bold" font-size="13">ve</text>
          </lyric>
        </note>
      </measure>
    <measure number="19" width="157.75">
      <note default-x="21.26" default-y="-25.00">
        <pitch>
          <step>A</step>
          <octave>4</octave>
          </pitch>
        <duration>4</duration>
        <voice>1</voice>
        <type>half</type>
        <stem>up</stem>
        <lyric number="1" default-x="6.22" default-y="-70.00" relative-y="-3.00">
          <syllabic>begin</syllabic>
          <text font-weight="bold" font-size="13">no</text>
          </lyric>
        </note>
      <note default-x="88.52" default-y="-25.00">
        <pitch>
          <step>A</step>
          <octave>4</octave>
          </pitch>
        <duration>4</duration>
        <voice>1</voice>
        <type>half</type>
        <stem>up</stem>
        <lyric number="1" default-x="6.22" default-y="-70.00" relative-y="-3.00">
          <syllabic>end</syllabic>
          <text font-weight="bold" font-size="13">ten</text>
          </lyric>
        </note>
      </measure>
    <measure number="20" width="142.51">
      <note default-x="20.66" default-y="-25.00">
        <pitch>
          <step>A</step>
          <octave>4</octave>
          </pitch>
        <duration>4</duration>
        <voice>1</voice>
        <type>half</type>
        <stem>up</stem>
        <lyric number="1" default-x="6.22" default-y="-70.00" relative-y="-3.00">
          <syllabic>single</syllabic>
          <text font-weight="bold" font-size="13">en</text>
          </lyric>
        </note>
      <note default-x="80.60" default-y="-25.00">
        <pitch>
          <step>A</step>
          <octave>4</octave>
          </pitch>
        <duration>4</duration>
        <voice>1</voice>
        <type>half</type>
        <stem>up</stem>
        <lyric number="1" default-x="6.22" default-y="-70.00" relative-y="-3.00">
          <syllabic>single</syllabic>
          <text font-weight="bold" font-size="13">ze</text>
          </lyric>
        </note>
      </measure>
    <measure number="21" width="209.79">
      <note default-x="34.66" default-y="-30.00">
        <pitch>
          <step>G</step>
          <octave>4</octave>
          </pitch>
        <duration>4</duration>
        <voice>1</voice>
        <type>half</type>
        <stem>up</stem>
        <lyric number="1" default-x="6.22" default-y="-70.00" relative-y="-3.00">
          <syllabic>single</syllabic>
          <text font-weight="bold" font-size="13">gaan</text>
          </lyric>
        </note>
      <note default-x="121.24" default-y="-30.00">
        <pitch>
          <step>G</step>
          <octave>4</octave>
          </pitch>
        <duration>4</duration>
        <voice>1</voice>
        <type>half</type>
        <stem>up</stem>
        <lyric number="1" default-x="6.22" default-y="-70.00" relative-y="-3.00">
          <syllabic>single</syllabic>
          <text font-weight="bold" font-size="13">weer</text>
          </lyric>
        </note>
      </measure>
    <measure number="22" width="91.99">
      <note>
        <rest/>
        <duration>8</duration>
        <voice>1</voice>
        </note>
      </measure>
    <measure number="23" width="181.00">
      <print new-system="yes">
        <system-layout>
          <system-margins>
            <left-margin>0.00</left-margin>
            <right-margin>0.00</right-margin>
            </system-margins>
          <system-distance>150.00</system-distance>
          </system-layout>
        </print>
      <note default-x="61.97" default-y="-50.00">
        <pitch>
          <step>C</step>
          <octave>4</octave>
          </pitch>
        <duration>8</duration>
        <voice>1</voice>
        <type>whole</type>
        <lyric number="1" default-x="3.26" default-y="-70.00" relative-y="-21.40">
          <syllabic>middle</syllabic>
          <text font-weight="bold" font-size="13">he</text>
          </lyric>
        </note>
      </measure>
    <measure number="24" width="129.20">
      <note default-x="14.10" default-y="-40.00">
        <pitch>
          <step>E</step>
          <octave>4</octave>
          </pitch>
        <duration>8</duration>
        <voice>1</voice>
        <type>whole</type>
        <lyric number="1" default-x="3.26" default-y="-70.00" relative-y="-21.40">
          <syllabic>end</syllabic>
          <text font-weight="bold" font-size="13">le</text>
          </lyric>
        </note>
      </measure>
    <measure number="25" width="138.04">
      <note default-x="18.30" default-y="-60.00">
        <pitch>
          <step>A</step>
          <octave>3</octave>
          </pitch>
        <duration>8</duration>
        <voice>1</voice>
        <type>whole</type>
        <lyric number="1" default-x="3.26" default-y="-70.00" relative-y="-21.40">
          <syllabic>begin</syllabic>
          <text font-weight="bold" font-size="13">no</text>
          </lyric>
        </note>
      </measure>
    <measure number="26" width="149.48">
      <note default-x="18.22" default-y="-50.00">
        <pitch>
          <step>C</step>
          <alter>1</alter>
          <octave>4</octave>
          </pitch>
        <duration>8</duration>
        <voice>1</voice>
        <type>whole</type>
        <accidental>sharp</accidental>
        <lyric number="1" default-x="5.46" default-y="-70.00" relative-y="-21.40">
          <syllabic>end</syllabic>
          <text font-weight="bold" font-size="13">ten:</text>
          </lyric>
        </note>
      </measure>
    <measure number="27" width="158.28">
      <note default-x="27.50" default-y="-45.00">
        <pitch>
          <step>D</step>
          <octave>4</octave>
          </pitch>
        <duration>8</duration>
        <voice>1</voice>
        <type>whole</type>
        <lyric number="1" default-x="3.26" default-y="-70.00" relative-y="-21.40">
          <syllabic>single</syllabic>
          <text font-weight="bold" font-size="13">rust</text>
          </lyric>
        </note>
      </measure>
    <measure number="28" width="171.92">
      <note default-x="33.70" default-y="-55.00">
        <pitch>
          <step>B</step>
          <octave>3</octave>
          </pitch>
        <duration>8</duration>
        <voice>1</voice>
        <type>whole</type>
        <lyric number="1" default-x="3.26" default-y="-70.00" relative-y="-21.40">
          <syllabic>single</syllabic>
          <text font-weight="bold" font-size="13">keert</text>
          </lyric>
        </note>
      </measure>
    <measure number="29" width="182.68">
      <note default-x="32.10" default-y="-50.00">
        <pitch>
          <step>C</step>
          <octave>4</octave>
          </pitch>
        <duration>8</duration>
        <voice>1</voice>
        <type>whole</type>
        <lyric number="1" default-x="5.46" default-y="-70.00" relative-y="-21.40">
          <syllabic>single</syllabic>
          <text font-weight="bold" font-size="13">weer.</text>
          </lyric>
        </note>
      <barline location="right">
        <bar-style>light-heavy</bar-style>
        </barline>
      </measure>
    </part>
  </score-partwise>
